<svg width="32" height="32" viewBox="0 0 32 32" fill="none" xmlns="http://www.w3.org/2000/svg">
<rect width="32" height="32" fill="#F0F8E3"/>
<path fill-rule="evenodd" clip-rule="evenodd" d="M30.3672 8.14584C30.0914 8.22659 29.6208 8.36104 29.3214 8.44458C27.149 9.05098 25.9911 9.53838 25.0914 10.2252C23.4358 11.4891 22.7762 12.7615 22.5343 15.1577C22.3742 16.7455 21.7441 17.9107 20.4004 19.1043C19.2701 20.1082 18.4691 20.5018 17.6258 20.4676C17.0686 20.4451 16.7743 20.0992 16.7725 19.4649C16.7714 19.0409 17.3323 17.9042 17.7363 17.512C18.2496 17.0135 18.5816 16.9677 18.9895 17.3394C19.4854 17.7913 19.8988 17.8076 19.8988 17.3753C19.8988 16.7798 19.1145 16.5904 17.9916 16.9146C17.6005 17.0275 17.6147 17.0266 17.5853 16.9416C17.477 16.6285 17.601 16.5111 18.3088 16.2568C19.1157 15.9669 19.632 15.6096 19.8487 15.1914C20.098 14.7104 20.0239 14.3173 19.7005 14.4051C19.576 14.4388 19.446 14.5673 19.158 14.9412C18.5157 15.775 17.6246 16.5026 17.4352 16.3479C17.3414 16.2713 17.4079 16.1483 17.8488 15.5833C18.5214 14.7212 18.6291 14.476 18.381 14.3715C18.1326 14.2669 17.95 14.4927 17.6916 15.2237C17.4456 15.92 17.4053 16.0232 17.3425 16.1188C17.1198 16.4578 16.9737 16.3217 16.9011 15.7078C16.8154 14.9838 16.7426 14.8365 16.4701 14.8365C16.3559 14.8365 16.335 14.8436 16.2772 14.9019C16.1499 15.0302 16.1942 15.1787 16.5677 15.8783C16.7843 16.2841 16.834 16.4783 16.7493 16.5869C16.6677 16.6914 16.6047 16.6679 16.3715 16.4465C15.9972 16.0909 15.6811 16.0563 15.5396 16.3554C15.466 16.5111 15.5275 16.553 16.0572 16.708C16.9209 16.9609 17.0591 17.3488 16.6131 18.2678C16.0199 19.4898 15.1433 19.864 14.4482 19.1919C14.0229 18.7807 13.8211 18.2316 13.6774 17.0954C13.5859 16.3713 13.2882 15.9625 12.5571 15.557C12.1465 15.3293 12.0839 15.2581 12.1407 15.0844C12.2154 14.8561 12.4333 14.772 12.9491 14.772C13.3921 14.772 13.4363 14.7577 13.6232 14.5542C13.8326 14.3262 13.947 14.0239 14.0292 13.4811C14.1116 12.9367 14.1275 12.8512 14.1672 12.7374C14.2575 12.4784 14.344 12.3826 14.7439 12.099C14.9665 11.9411 15.0579 11.7833 14.9751 11.6999C14.9179 11.6422 14.8558 11.6733 14.7198 11.8272C14.2875 12.3169 14.2385 12.349 14.1141 12.2236C13.9876 12.0961 14.105 11.9024 14.6664 11.3121C15.2469 10.7018 15.3718 10.4631 15.1912 10.3099C14.9555 10.1099 14.68 10.4168 14.3063 11.2952C13.9962 12.0241 13.9095 12.1491 13.8009 12.0237C13.7267 11.938 13.7115 11.8249 13.7189 11.4159C13.7344 10.5606 13.7347 10.5728 13.6872 10.4909C13.632 10.3959 13.5187 10.3752 13.4533 10.448C13.3968 10.511 13.386 10.7254 13.4294 10.9253C13.5422 11.4453 13.5417 11.6048 13.4272 11.6957C13.3131 11.7862 13.2196 11.7019 13.0992 11.3999C12.9413 11.0041 12.8065 10.8697 12.7086 11.0108C12.6248 11.1313 12.6874 11.2562 13.0204 11.6326C13.521 12.1982 13.504 12.292 12.9503 12.0182C12.5562 11.8233 12.4183 11.8127 12.4183 11.9772C12.4183 12.1359 12.6002 12.2377 12.9519 12.2761C13.4962 12.3355 13.6126 12.4541 13.5846 12.9207C13.5237 13.9373 12.8222 14.4256 11.65 14.2676C10.7211 14.1424 10.6362 14.0504 10.7355 13.2768C10.917 11.8628 10.3978 10.8981 9.06758 10.1775C8.92089 10.098 8.57514 9.90922 8.29926 9.75796C7.50289 9.32115 7.21624 9.27613 6.72619 9.51071C6.25911 9.73428 6.12985 10.0653 6.15012 10.9857C6.17293 12.0168 6.38104 12.8878 6.7989 13.7003C7.17053 14.423 7.94311 14.9656 8.60042 14.9656C8.93076 14.9656 9.07543 15.0235 9.49008 15.3217C10.094 15.7561 10.1134 15.8058 9.9428 16.4823C9.9309 16.5295 9.90644 16.7184 9.88856 16.9017C9.77164 18.0993 9.6269 18.3501 9.19557 18.1027C8.83239 17.8944 8.5889 17.4605 8.4577 16.7877C8.37249 16.3509 8.29679 16.2278 8.20261 16.3726C8.13454 16.4774 8.16424 16.9687 8.25064 17.1679C8.29918 17.2799 8.2365 17.3426 8.09242 17.3263C7.91783 17.3064 7.80226 17.1647 7.44559 16.5332C6.95823 15.6702 6.82815 15.5312 6.61301 15.6433C6.36436 15.773 6.52384 16.0906 7.17943 16.7717C7.62774 17.2374 7.70172 17.3333 7.70172 17.4492C7.70172 17.6364 7.49152 17.6038 6.86937 17.3199C6.36645 17.0905 6.19642 17.0605 6.07801 17.1797C6.00761 17.2507 6.002 17.2861 6.04704 17.3738C6.08691 17.4516 6.15498 17.4677 6.68796 17.5262C7.51388 17.6169 7.61629 17.6485 7.61629 17.8124C7.61629 17.8919 7.49092 17.9924 7.36644 18.0127C7.25222 18.0314 7.20367 18.0318 6.68796 18.0188C6.28133 18.0086 6.16306 18.0291 6.0712 18.1257C5.98241 18.2192 5.97657 18.3071 6.05422 18.3853C6.17997 18.512 6.44163 18.4754 7.20015 18.225C7.74982 18.0436 7.95134 18.0483 7.93227 18.2424C7.92202 18.3475 7.8348 18.3845 7.53947 18.4087C7.26643 18.4311 7.18946 18.4612 7.18946 18.5454C7.18946 18.6844 7.33084 18.6927 7.7555 18.5785C8.33382 18.4229 8.4963 18.438 9.08897 18.7021C9.6821 18.9665 9.87427 19.0029 10.1027 18.8943C10.3898 18.7579 10.4521 18.5023 10.3594 17.8414C10.3064 17.4639 10.3228 17.3916 10.5127 17.1656C10.5899 17.0737 10.6607 16.9955 10.6702 16.9918C10.6797 16.988 10.7319 17.1284 10.7863 17.3037C11.1343 18.426 11.2577 18.7196 11.671 19.408C12.3935 20.6113 12.837 21.0461 13.9284 21.6214C14.7574 22.0583 14.8686 22.1691 14.8467 22.5363C14.8149 23.0713 14.4003 23.3025 13.4748 23.3012C12.3216 23.2997 12.0078 23.1196 11.754 22.3139C11.5687 21.7256 11.4563 21.589 11.2038 21.645C10.9518 21.7007 11.0052 21.8867 11.4262 22.4202C11.8437 22.9494 11.9274 23.0894 11.9274 23.2582C11.9274 23.4936 11.8214 23.4939 11.3567 23.2603C10.809 22.985 10.677 22.9497 10.5096 23.0333C10.2497 23.1631 10.2779 23.4884 10.5536 23.5405C10.6378 23.5564 11.0318 23.5401 11.3355 23.508C11.7457 23.4648 11.8597 23.6347 11.5596 23.8417C11.4247 23.9347 11.2388 23.9747 10.7665 24.0123C10.1696 24.0598 10.092 24.0916 10.092 24.2882C10.092 24.5528 10.3951 24.5327 11.0951 24.2214C11.5783 24.0066 11.7567 23.9672 11.7567 24.0752C11.7567 24.1151 11.5296 24.295 11.1165 24.5822C10.2666 25.1729 10.0665 25.3339 9.94541 25.5241C9.78496 25.7762 9.88048 25.9596 10.1714 25.9583C10.4432 25.957 10.683 25.7462 11.2234 25.0337C11.9353 24.095 12.1772 23.9713 12.6596 24.2994C12.9128 24.4716 12.9154 24.5033 12.7137 24.9744C12.4054 25.6944 12.4663 26.0334 12.8971 25.9974C13.2584 25.9672 13.3345 25.6228 13.129 24.9491C12.7956 23.8564 12.8412 23.7852 13.923 23.7088C14.6871 23.6549 14.8519 23.6086 15.2566 23.3344C16.2181 22.6831 16.9045 22.3713 17.9887 22.0937C19.6982 21.656 20.655 21.1484 21.6281 20.1629C22.7468 19.0301 23.243 17.7863 23.6129 15.188C23.9381 12.9041 24.1146 12.396 24.8862 11.5235C25.7333 10.5655 26.9605 9.85772 30.2285 8.44255C31.0235 8.09826 31.019 8.10067 30.9919 8.02225C30.976 7.97625 30.8845 7.99428 30.3672 8.14584Z" fill="#2F5427"/>
</svg>
